<svg width="24" height="24" viewBox="0 0 24 24" fill="none" xmlns="http://www.w3.org/2000/svg">
<path d="M22 8.52V3.98C22 2.57 21.36 2 19.77 2H15.73C14.14 2 13.5 2.57 13.5 3.98V8.51C13.5 9.93 14.14 10.49 15.73 10.49H19.77C21.36 10.5 22 9.93 22 8.52Z" stroke="#E1E1EE" stroke-width="1.02476" stroke-linecap="round" stroke-linejoin="round"/>
<path d="M22 19.77V15.73C22 14.14 21.36 13.5 19.77 13.5H15.73C14.14 13.5 13.5 14.14 13.5 15.73V19.77C13.5 21.36 14.14 22 15.73 22H19.77C21.36 22 22 21.36 22 19.77Z" stroke="#E1E1EE" stroke-width="1.02476" stroke-linecap="round" stroke-linejoin="round"/>
<path d="M10.5 8.52V3.98C10.5 2.57 9.85997 2 8.26997 2H4.22997C2.63997 2 1.99997 2.57 1.99997 3.98V8.51C1.99997 9.93 2.63997 10.49 4.22997 10.49H8.26997C9.85997 10.5 10.5 9.93 10.5 8.52Z" stroke="#E1E1EE" stroke-width="1.02476" stroke-linecap="round" stroke-linejoin="round"/>
<path d="M10.5 19.77V15.73C10.5 14.14 9.85997 13.5 8.26997 13.5H4.22997C2.63997 13.5 1.99997 14.14 1.99997 15.73V19.77C1.99997 21.36 2.63997 22 4.22997 22H8.26997C9.85997 22 10.5 21.36 10.5 19.77Z" stroke="#E1E1EE" stroke-width="1.02476" stroke-linecap="round" stroke-linejoin="round"/>
</svg>
