<svg width="30" height="30" viewBox="0 0 30 30" fill="none" xmlns="http://www.w3.org/2000/svg">
<path d="M15 18.75C17.0711 18.75 18.75 17.0711 18.75 15C18.75 12.9289 17.0711 11.25 15 11.25C12.929 11.25 11.25 12.9289 11.25 15C11.25 17.0711 12.929 18.75 15 18.75Z" stroke="#E1E1EE" stroke-width="1.02476" stroke-miterlimit="10" stroke-linecap="round" stroke-linejoin="round"/>
<path d="M2.50009 16.1V13.9C2.50009 12.6 3.56259 11.525 4.87509 11.525C7.13759 11.525 8.06259 9.92498 6.92509 7.96248C6.27509 6.83748 6.66259 5.37498 7.80009 4.72498L9.96259 3.48748C10.9501 2.89998 12.2251 3.24998 12.8126 4.23748L12.9501 4.47498C14.0751 6.43748 15.9251 6.43748 17.0626 4.47498L17.2001 4.23748C17.7876 3.24998 19.0626 2.89998 20.0501 3.48748L22.2126 4.72498C23.3501 5.37498 23.7376 6.83748 23.0876 7.96248C21.9501 9.92498 22.8751 11.525 25.1376 11.525C26.4376 11.525 27.5126 12.5875 27.5126 13.9V16.1C27.5126 17.4 26.4501 18.475 25.1376 18.475C22.8751 18.475 21.9501 20.075 23.0876 22.0375C23.7376 23.175 23.3501 24.625 22.2126 25.275L20.0501 26.5125C19.0626 27.1 17.7876 26.75 17.2001 25.7625L17.0626 25.525C15.9376 23.5625 14.0876 23.5625 12.9501 25.525L12.8126 25.7625C12.2251 26.75 10.9501 27.1 9.96259 26.5125L7.80009 25.275C6.66259 24.625 6.27509 23.1625 6.92509 22.0375C8.06259 20.075 7.13759 18.475 4.87509 18.475C3.56259 18.475 2.50009 17.4 2.50009 16.1Z" stroke="#E1E1EE" stroke-width="1.02476" stroke-miterlimit="10" stroke-linecap="round" stroke-linejoin="round"/>
</svg>
