<svg width="24" height="24" viewBox="0 0 24 24" fill="none" xmlns="http://www.w3.org/2000/svg">
<path d="M3 22H21" stroke="#E1E1EE" stroke-width="1.02476" stroke-linecap="round" stroke-linejoin="round"/>
<path d="M5.59998 8.38H4C3.45 8.38 3 8.83 3 9.38V18C3 18.55 3.45 19 4 19H5.59998C6.14998 19 6.59998 18.55 6.59998 18V9.38C6.59998 8.83 6.14998 8.38 5.59998 8.38Z" stroke="#E1E1EE" stroke-width="1.02476" stroke-linecap="round" stroke-linejoin="round"/>
<path d="M12.7999 5.19002H11.2C10.65 5.19002 10.2 5.64002 10.2 6.19002V18C10.2 18.55 10.65 19 11.2 19H12.7999C13.3499 19 13.7999 18.55 13.7999 18V6.19002C13.7999 5.64002 13.3499 5.19002 12.7999 5.19002Z" stroke="#E1E1EE" stroke-width="1.02476" stroke-linecap="round" stroke-linejoin="round"/>
<path d="M20.0001 2H18.4001C17.8501 2 17.4001 2.45 17.4001 3V18C17.4001 18.55 17.8501 19 18.4001 19H20.0001C20.5501 19 21.0001 18.55 21.0001 18V3C21.0001 2.45 20.5501 2 20.0001 2Z" stroke="#E1E1EE" stroke-width="1.02476" stroke-linecap="round" stroke-linejoin="round"/>
</svg>
